<svg xmlns="http://www.w3.org/2000/svg" width="1200" height="720" viewBox="0 0 1200 720" role="img" aria-labelledby="title desc">
  <title id="title">NyayaLens Overview tab placeholder</title>
  <desc id="desc">Synthetic placeholder showing summary cards and key facts.</desc>
  <rect width="1200" height="720" fill="#f7f8fb"/>
  <rect x="54" y="44" width="1092" height="632" rx="18" fill="#ffffff" stroke="#d9deea"/>
  <text x="88" y="98" font-family="Inter, Arial, sans-serif" font-size="34" font-weight="700" fill="#172033">NyayaLens Analysis Report</text>
  <text x="88" y="134" font-family="Inter, Arial, sans-serif" font-size="18" fill="#5b6475">Synthetic freelance payment demo - Overview</text>
  <g font-family="Inter, Arial, sans-serif">
    <rect x="88" y="178" width="190" height="92" rx="12" fill="#eef6ff" stroke="#c8ddff"/>
    <text x="108" y="214" font-size="14" fill="#526070">Issue</text>
    <text x="108" y="246" font-size="20" font-weight="700" fill="#193b68">Unpaid compensation</text>
    <rect x="300" y="178" width="190" height="92" rx="12" fill="#f1fbf4" stroke="#c8ebd2"/>
    <text x="320" y="214" font-size="14" fill="#526070">Domain</text>
    <text x="320" y="246" font-size="20" font-weight="700" fill="#20583a">Contract payment</text>
    <rect x="512" y="178" width="220" height="92" rx="12" fill="#fff7ed" stroke="#ffd7a8"/>
    <text x="532" y="214" font-size="14" fill="#526070">Document type</text>
    <text x="532" y="246" font-size="20" font-weight="700" fill="#7a4319">Service agreement</text>
    <rect x="754" y="178" width="150" height="92" rx="12" fill="#f7f2ff" stroke="#dfceff"/>
    <text x="774" y="214" font-size="14" fill="#526070">Confidence</text>
    <text x="774" y="246" font-size="20" font-weight="700" fill="#4e2b7a">Medium</text>
    <rect x="926" y="178" width="180" height="92" rx="12" fill="#fff1f3" stroke="#ffc9d2"/>
    <text x="946" y="214" font-size="14" fill="#526070">Risk flags</text>
    <text x="946" y="246" font-size="20" font-weight="700" fill="#7a2232">5</text>
  </g>
  <text x="88" y="330" font-family="Inter, Arial, sans-serif" font-size="24" font-weight="700" fill="#172033">Key facts relevant to this dispute</text>
  <rect x="88" y="360" width="1018" height="244" rx="10" fill="#fbfcfe" stroke="#d9deea"/>
  <g font-family="Inter, Arial, sans-serif" font-size="16" fill="#293244">
    <text x="114" y="400" font-weight="700">Fact</text><text x="346" y="400" font-weight="700">Value</text><text x="760" y="400" font-weight="700">Source</text><text x="920" y="400" font-weight="700">Why it matters</text>
    <line x1="104" y1="420" x2="1090" y2="420" stroke="#d9deea"/>
    <text x="114" y="456">Company/client</text><text x="346" y="456">Acme Demo Services LLP</text><text x="760" y="456">Document p.1</text><text x="920" y="456">Identifies counterparty</text>
    <text x="114" y="500">Invoice timing</text><text x="346" y="500">7 days before month end</text><text x="760" y="500">Document p.2</text><text x="920" y="500">Payment due check</text>
    <text x="114" y="544">TDS clause</text><text x="346" y="544">TDS deducted as applicable</text><text x="760" y="544">Document p.3</text><text x="920" y="544">Deduction context</text>
  </g>
</svg>
